HIERARCHY
ROOT mixamorig:Hips
{
	OFFSET -0.000008 104.274872 1.554316
	CHANNELS 6 Xposition Yposition Zposition Xrotation Yrotation Zrotation
	JOINT mixamorig:Spine
	{
		OFFSET -0.000005 10.181595 0.131519
		CHANNELS 6 Xposition Yposition Zposition Xrotation Yrotation Zrotation
		JOINT mixamorig:Spine1
		{
			OFFSET -0.000000 9.893959 -1.470707
			CHANNELS 6 Xposition Yposition Zposition Xrotation Yrotation Zrotation
			JOINT mixamorig:Spine2
			{
				OFFSET -0.000000 9.220757 -1.370641
				CHANNELS 6 Xposition Yposition Zposition Xrotation Yrotation Zrotation
				JOINT mixamorig:Neck
				{
					OFFSET 0.000001 16.740417 -2.049036
					CHANNELS 6 Xposition Yposition Zposition Xrotation Yrotation Zrotation
					JOINT mixamorig:Head
					{
						OFFSET 0.000000 9.617874 1.685006
						CHANNELS 6 Xposition Yposition Zposition Xrotation Yrotation Zrotation
						JOINT mixamorig:HeadTop_End
						{
							OFFSET 0.000002 22.037354 7.501101
							CHANNELS 6 Xposition Yposition Zposition Xrotation Yrotation Zrotation
							End Site
							{
								OFFSET 0.000168 2310.654297 -282.823242
							}
						}
					}
				}
				JOINT mixamorig:RightShoulder
				{
					OFFSET -4.569970 11.014908 -2.160885
					CHANNELS 6 Xposition Yposition Zposition Xrotation Yrotation Zrotation
					JOINT mixamorig:RightArm
					{
						OFFSET -10.592851 -0.524811 -2.232101
						CHANNELS 6 Xposition Yposition Zposition Xrotation Yrotation Zrotation
						JOINT mixamorig:RightForeArm
						{
							OFFSET -27.841511 0.000031 -0.000004
							CHANNELS 6 Xposition Yposition Zposition Xrotation Yrotation Zrotation
							JOINT mixamorig:RightHand
							{
								OFFSET -28.328831 -0.000015 0.000015
								CHANNELS 6 Xposition Yposition Zposition Xrotation Yrotation Zrotation
								JOINT mixamorig:RightHandThumb1
								{
									OFFSET -2.464806 -1.573990 2.681852
									CHANNELS 6 Xposition Yposition Zposition Xrotation Yrotation Zrotation
									JOINT mixamorig:RightHandThumb2
									{
										OFFSET -3.215179 -1.872803 1.924282
										CHANNELS 6 Xposition Yposition Zposition Xrotation Yrotation Zrotation
										JOINT mixamorig:RightHandThumb3
										{
											OFFSET -2.654831 -1.527969 1.512609
											CHANNELS 6 Xposition Yposition Zposition Xrotation Yrotation Zrotation
											JOINT mixamorig:RightHandThumb4
											{
												OFFSET -2.018814 -1.152008 1.108052
												CHANNELS 6 Xposition Yposition Zposition Xrotation Yrotation Zrotation
												End Site
												{
													OFFSET -188.809540 -114.533607 132.431396
												}
											}
										}
									}
								}
								JOINT mixamorig:RightHandIndex1
								{
									OFFSET -9.108284 -0.517868 2.259835
									CHANNELS 6 Xposition Yposition Zposition Xrotation Yrotation Zrotation
									JOINT mixamorig:RightHandIndex2
									{
										OFFSET -3.699989 0.000000 0.001215
										CHANNELS 6 Xposition Yposition Zposition Xrotation Yrotation Zrotation
										JOINT mixamorig:RightHandIndex3
										{
											OFFSET -2.850006 0.000031 -0.000522
											CHANNELS 6 Xposition Yposition Zposition Xrotation Yrotation Zrotation
											JOINT mixamorig:RightHandIndex4
											{
												OFFSET -2.772186 -0.000015 -0.000020
												CHANNELS 6 Xposition Yposition Zposition Xrotation Yrotation Zrotation
												End Site
												{
													OFFSET -277.218445 0.000000 -0.050231
												}
											}
										}
									}
								}
								JOINT mixamorig:RightHandMiddle1
								{
									OFFSET -9.532516 -0.000031 -0.000023
									CHANNELS 6 Xposition Yposition Zposition Xrotation Yrotation Zrotation
									JOINT mixamorig:RightHandMiddle2
									{
										OFFSET -3.700005 -0.000015 0.003713
										CHANNELS 6 Xposition Yposition Zposition Xrotation Yrotation Zrotation
										JOINT mixamorig:RightHandMiddle3
										{
											OFFSET -2.949974 0.000015 -0.002054
											CHANNELS 6 Xposition Yposition Zposition Xrotation Yrotation Zrotation
											JOINT mixamorig:RightHandMiddle4
											{
												OFFSET -2.946640 0.000000 -0.000156
												CHANNELS 6 Xposition Yposition Zposition Xrotation Yrotation Zrotation
												End Site
												{
													OFFSET -294.664337 0.000000 -0.113670
												}
											}
										}
									}
								}
								JOINT mixamorig:RightHandRing1
								{
									OFFSET -9.103600 -0.043076 -1.865134
									CHANNELS 6 Xposition Yposition Zposition Xrotation Yrotation Zrotation
									JOINT mixamorig:RightHandRing2
									{
										OFFSET -3.379288 0.000000 -0.001055
										CHANNELS 6 Xposition Yposition Zposition Xrotation Yrotation Zrotation
										JOINT mixamorig:RightHandRing3
										{
											OFFSET -2.889687 -0.000015 0.000379
											CHANNELS 6 Xposition Yposition Zposition Xrotation Yrotation Zrotation
											JOINT mixamorig:RightHandRing4
											{
												OFFSET -2.638809 -0.000015 0.000941
												CHANNELS 6 Xposition Yposition Zposition Xrotation Yrotation Zrotation
												End Site
												{
													OFFSET -263.880371 0.000000 0.516020
												}
											}
										}
									}
								}
								JOINT mixamorig:RightHandPinky1
								{
									OFFSET -8.076683 -0.486710 -3.806280
									CHANNELS 6 Xposition Yposition Zposition Xrotation Yrotation Zrotation
									JOINT mixamorig:RightHandPinky2
									{
										OFFSET -3.600014 -0.000015 -0.003747
										CHANNELS 6 Xposition Yposition Zposition Xrotation Yrotation Zrotation
										JOINT mixamorig:RightHandPinky3
										{
											OFFSET -2.099983 0.000000 -0.005739
											CHANNELS 6 Xposition Yposition Zposition Xrotation Yrotation Zrotation
											JOINT mixamorig:RightHandPinky4
											{
												OFFSET -2.115768 -0.000031 -0.003680
												CHANNELS 6 Xposition Yposition Zposition Xrotation Yrotation Zrotation
												End Site
												{
													OFFSET -211.577087 0.000000 -0.350686
												}
											}
										}
									}
								}
							}
						}
					}
				}
				JOINT mixamorig:LeftShoulder
				{
					OFFSET 4.570447 11.014725 -2.160855
					CHANNELS 6 Xposition Yposition Zposition Xrotation Yrotation Zrotation
					JOINT mixamorig:LeftArm
					{
						OFFSET 10.592371 -0.524597 -2.232119
						CHANNELS 6 Xposition Yposition Zposition Xrotation Yrotation Zrotation
						JOINT mixamorig:LeftForeArm
						{
							OFFSET 27.841532 -0.000031 0.000026
							CHANNELS 6 Xposition Yposition Zposition Xrotation Yrotation Zrotation
							JOINT mixamorig:LeftHand
							{
								OFFSET 28.328846 -0.000061 0.000022
								CHANNELS 6 Xposition Yposition Zposition Xrotation Yrotation Zrotation
								JOINT mixamorig:LeftHandThumb1
								{
									OFFSET 2.466141 -1.576172 2.681732
									CHANNELS 6 Xposition Yposition Zposition Xrotation Yrotation Zrotation
									JOINT mixamorig:LeftHandThumb2
									{
										OFFSET 3.217812 -1.872070 1.916482
										CHANNELS 6 Xposition Yposition Zposition Xrotation Yrotation Zrotation
										JOINT mixamorig:LeftHandThumb3
										{
											OFFSET 2.656029 -1.528778 1.514513
											CHANNELS 6 Xposition Yposition Zposition Xrotation Yrotation Zrotation
											JOINT mixamorig:LeftHandThumb4
											{
												OFFSET 2.020889 -1.154053 1.115139
												CHANNELS 6 Xposition Yposition Zposition Xrotation Yrotation Zrotation
												End Site
												{
													OFFSET 190.885437 -115.081749 130.048782
												}
											}
										}
									}
								}
								JOINT mixamorig:LeftHandIndex1
								{
									OFFSET 9.109314 -0.518021 2.259871
									CHANNELS 6 Xposition Yposition Zposition Xrotation Yrotation Zrotation
									JOINT mixamorig:LeftHandIndex2
									{
										OFFSET 3.699989 0.000000 -0.000322
										CHANNELS 6 Xposition Yposition Zposition Xrotation Yrotation Zrotation
										JOINT mixamorig:LeftHandIndex3
										{
											OFFSET 2.850006 0.000000 0.000352
											CHANNELS 6 Xposition Yposition Zposition Xrotation Yrotation Zrotation
											JOINT mixamorig:LeftHandIndex4
											{
												OFFSET 2.774864 -0.000031 -0.000027
												CHANNELS 6 Xposition Yposition Zposition Xrotation Yrotation Zrotation
												End Site
												{
													OFFSET 277.486267 0.000000 -0.009857
												}
											}
										}
									}
								}
								JOINT mixamorig:LeftHandMiddle1
								{
									OFFSET 9.533394 0.000061 0.000044
									CHANNELS 6 Xposition Yposition Zposition Xrotation Yrotation Zrotation
									JOINT mixamorig:LeftHandMiddle2
									{
										OFFSET 3.699989 -0.000015 -0.000231
										CHANNELS 6 Xposition Yposition Zposition Xrotation Yrotation Zrotation
										JOINT mixamorig:LeftHandMiddle3
										{
											OFFSET 2.949997 -0.000015 -0.000059
											CHANNELS 6 Xposition Yposition Zposition Xrotation Yrotation Zrotation
											JOINT mixamorig:LeftHandMiddle4
											{
												OFFSET 2.952896 0.000031 0.000063
												CHANNELS 6 Xposition Yposition Zposition Xrotation Yrotation Zrotation
												End Site
												{
													OFFSET 295.289337 0.000000 0.022810
												}
											}
										}
									}
								}
								JOINT mixamorig:LeftHandRing1
								{
									OFFSET 9.104523 -0.042999 -1.865074
									CHANNELS 6 Xposition Yposition Zposition Xrotation Yrotation Zrotation
									JOINT mixamorig:LeftHandRing2
									{
										OFFSET 3.150009 -0.000031 0.000043
										CHANNELS 6 Xposition Yposition Zposition Xrotation Yrotation Zrotation
										JOINT mixamorig:LeftHandRing3
										{
											OFFSET 2.949982 -0.000015 0.000040
											CHANNELS 6 Xposition Yposition Zposition Xrotation Yrotation Zrotation
											JOINT mixamorig:LeftHandRing4
											{
												OFFSET 2.644348 0.000000 0.000057
												CHANNELS 6 Xposition Yposition Zposition Xrotation Yrotation Zrotation
												End Site
												{
													OFFSET 264.434631 0.000000 0.012105
												}
											}
										}
									}
								}
								JOINT mixamorig:LeftHandPinky1
								{
									OFFSET 8.077789 -0.486847 -3.806259
									CHANNELS 6 Xposition Yposition Zposition Xrotation Yrotation Zrotation
									JOINT mixamorig:LeftHandPinky2
									{
										OFFSET 3.599953 0.000031 0.014727
										CHANNELS 6 Xposition Yposition Zposition Xrotation Yrotation Zrotation
										JOINT mixamorig:LeftHandPinky3
										{
											OFFSET 2.100021 0.000015 0.007705
											CHANNELS 6 Xposition Yposition Zposition Xrotation Yrotation Zrotation
											JOINT mixamorig:LeftHandPinky4
											{
												OFFSET 2.125504 0.000031 0.007517
												CHANNELS 6 Xposition Yposition Zposition Xrotation Yrotation Zrotation
												End Site
												{
													OFFSET 212.550781 0.000000 0.625752
												}
											}
										}
									}
								}
							}
						}
					}
				}
			}
		}
	}
	JOINT mixamorig:RightUpLeg
	{
		OFFSET -8.207787 -6.751648 -1.599560
		CHANNELS 6 Xposition Yposition Zposition Xrotation Yrotation Zrotation
		JOINT mixamorig:RightLeg
		{
			OFFSET -0.000002 -44.370117 0.345942
			CHANNELS 6 Xposition Yposition Zposition Xrotation Yrotation Zrotation
			JOINT mixamorig:RightFoot
			{
				OFFSET 0.000003 -44.423679 -3.043532
				CHANNELS 6 Xposition Yposition Zposition Xrotation Yrotation Zrotation
				JOINT mixamorig:RightToeBase
				{
					OFFSET -0.000002 -8.728671 10.710558
					CHANNELS 6 Xposition Yposition Zposition Xrotation Yrotation Zrotation
					JOINT mixamorig:RightToe_End
					{
						OFFSET -0.000001 -0.000679 9.278119
						CHANNELS 6 Xposition Yposition Zposition Xrotation Yrotation Zrotation
						End Site
						{
							OFFSET 0.000000 -0.067690 927.812134
						}
					}
				}
			}
		}
	}
	JOINT mixamorig:LeftUpLeg
	{
		OFFSET 8.207793 -6.751686 -1.599556
		CHANNELS 6 Xposition Yposition Zposition Xrotation Yrotation Zrotation
		JOINT mixamorig:LeftLeg
		{
			OFFSET -0.000004 -44.370014 0.346954
			CHANNELS 6 Xposition Yposition Zposition Xrotation Yrotation Zrotation
			JOINT mixamorig:LeftFoot
			{
				OFFSET -0.000001 -44.423672 -3.044401
				CHANNELS 6 Xposition Yposition Zposition Xrotation Yrotation Zrotation
				JOINT mixamorig:LeftToeBase
				{
					OFFSET -0.000002 -8.728669 10.710558
					CHANNELS 6 Xposition Yposition Zposition Xrotation Yrotation Zrotation
					JOINT mixamorig:LeftToe_End
					{
						OFFSET -0.000003 -0.000679 9.278133
						CHANNELS 6 Xposition Yposition Zposition Xrotation Yrotation Zrotation
						End Site
						{
							OFFSET 0.000000 -0.068021 927.813477
						}
					}
				}
			}
		}
	}
}
MOTION
Frames: 3
Frame Time: 0.033333
0.000006 104.270477 1.554256 0.000010 0.000003 -0.000113 -0.000005 10.181587 0.131522 0.000001 -0.000003 0.000084 -0.000000 9.893967 -1.470711 0.000001 0.000000 -0.000000 -0.000000 9.220802 -1.370642 0.000000 -0.000000 -0.000000 0.000001 16.740433 -2.049030 0.000000 -0.000000 -0.000000 0.000000 9.617859 1.685014 0.000000 0.000000 0.000000 0.000002 22.037384 7.501101 0.000000 -0.000000 0.000000 -4.569968 11.014880 -2.160881 0.000008 0.000001 -0.000038 -10.592833 -0.524824 -2.231798 72.400873 52.609436 -39.780569 -27.841526 -0.000006 0.000546 -54.962922 100.858275 64.373508 -28.328833 -0.000005 0.000030 -0.000321 -0.000044 0.000006 -2.464539 -1.574031 2.682420 -9.676231 -156.490412 65.190857 -3.215288 -1.872674 1.924727 165.357282 25.482111 -26.116348 -2.654929 -1.527926 1.513114 147.931434 25.026875 -52.938296 -2.018826 -1.151983 1.108064 -0.000002 0.000000 0.000002 -9.108401 -0.517555 2.260135 102.890154 17.215770 -21.567150 -3.700065 0.000329 0.001511 99.355920 11.718898 -13.761921 -2.850070 0.000376 -0.000265 96.013950 8.357965 -9.279889 -2.772172 -0.000016 -0.000015 -0.000000 0.000000 0.000000 -9.532598 0.000250 0.000199 85.775428 15.085520 -14.154765 -3.700033 0.000340 0.003923 86.645813 8.545483 -7.975366 -2.950054 0.000343 -0.001866 85.178586 8.437093 -7.751287 -2.946628 0.000003 -0.000157 -0.000000 0.000000 0.000001 -9.103705 -0.042754 -1.864914 81.843397 16.206176 -14.033577 -3.379329 0.000303 -0.000845 85.529814 10.105962 -9.366396 -2.889759 0.000349 0.000591 87.217534 6.719443 -6.444740 -2.638822 -0.000027 0.000938 -0.000002 0.000005 0.000002 -8.076754 -0.486406 -3.806097 70.607449 15.151991 -10.653965 -3.600041 0.000250 -0.003584 74.386491 9.808717 -7.174484 -2.100007 0.000297 -0.005561 77.294013 6.867882 -5.314973 -2.115763 -0.000052 -0.003676 0.000004 -0.000000 0.000001 4.570446 11.014691 -2.160851 -0.000018 0.000010 -0.000021 10.592476 -0.524479 -2.232400 70.575197 -40.209149 29.046646 27.841835 0.000048 -0.000189 103.151429 -75.780546 88.900957 28.328835 -0.000028 0.000022 0.000023 -0.000090 0.000002 2.466042 -1.576162 2.681904 -31.217492 152.257662 -23.265067 3.217629 -1.871683 1.916389 139.121637 -32.282097 -55.666841 2.656036 -1.528556 1.514410 146.726206 -28.770748 16.366308 2.020905 -1.154069 1.115137 0.000001 0.000003 0.000006 9.109376 -0.517816 2.259729 96.662292 -12.207726 13.689752 3.700036 0.000188 -0.000456 93.507004 -11.712759 12.464624 2.850078 0.000213 0.000214 92.688870 -11.833661 12.396784 2.774882 -0.000032 -0.000025 0.000002 -0.000001 -0.000001 9.533468 0.000229 -0.000092 90.536275 -12.909652 13.021359 3.700048 0.000186 -0.000364 94.650644 -16.475635 17.845691 2.950095 0.000150 -0.000170 92.020885 -21.337965 22.088939 2.952869 -0.000015 0.000063 -0.000002 0.000003 -0.000002 9.104592 -0.042840 -1.865215 88.191437 -15.970509 15.482183 3.150068 0.000191 -0.000059 96.451512 -20.276199 22.641083 2.950041 0.000157 -0.000026 96.174104 -21.628043 24.027912 2.644337 0.000047 0.000056 -0.000003 0.000001 0.000001 8.077846 -0.486757 -3.806393 69.013167 -20.583610 14.662838 3.600014 0.000128 0.014581 66.916490 -16.789457 11.499166 2.100044 0.000134 0.007550 69.408669 -15.477712 11.107272 2.125503 -0.000030 0.007515 0.000000 0.000000 0.000000 -8.207786 -6.751667 -1.599560 -0.077001 -0.000003 0.000080 -0.000002 -44.370110 0.345938 0.153719 -0.000000 -0.000000 0.000000 -44.423679 -3.043532 -0.076700 0.000000 -0.000002 -0.000006 -8.728667 10.710559 -0.000009 -0.000000 -0.000000 -0.000001 -0.000679 9.278123 0.000000 -0.000000 -0.000000 8.207792 -6.751710 -1.599556 -0.074518 -0.000003 0.000081 -0.000002 -44.370014 0.346960 0.148822 0.000002 0.000000 -0.000001 -44.423664 -3.044403 -0.074314 0.000000 -0.000002 -0.000004 -8.728671 10.710558 0.000007 -0.000000 -0.000000 0.000000 -0.000680 9.278137 -0.000000 0.000000 -0.000001 
0.000006 104.270477 1.554256 0.000010 0.000003 -0.000113 -0.000005 10.181587 0.131522 0.000001 -0.000003 0.000084 -0.000000 9.893967 -1.470711 0.000001 0.000000 -0.000000 -0.000000 9.220802 -1.370642 0.000000 -0.000000 -0.000000 0.000001 16.740433 -2.049030 0.000000 -0.000000 -0.000000 0.000000 9.617859 1.685014 0.000000 0.000000 0.000000 0.000002 22.037384 7.501101 0.000000 -0.000000 0.000000 -4.569968 11.014880 -2.160881 0.000008 0.000001 -0.000038 -10.592831 -0.524828 -2.231784 70.906277 54.439142 -40.231187 -27.841522 -0.000005 0.000552 -43.219105 98.917224 49.699520 -28.328842 0.000009 0.000025 -0.000322 -0.000046 0.000009 -2.464477 -1.573992 2.682387 -18.773671 -150.474873 45.157024 -3.215271 -1.872626 1.924683 159.228129 29.637284 -9.095792 -2.654958 -1.527877 1.513072 144.988264 27.180915 -38.924370 -2.018838 -1.151986 1.108063 -0.000003 -0.000001 0.000004 -9.108391 -0.517564 2.260146 104.026090 15.954972 -20.406756 -3.700073 0.000317 0.001543 102.795242 11.004350 -13.731124 -2.850065 0.000378 -0.000253 100.566995 7.644247 -9.194962 -2.772180 -0.000016 -0.000014 0.000000 -0.000005 0.000001 -9.532597 0.000270 0.000213 89.626835 13.378439 -13.430048 -3.700045 0.000346 0.003952 89.653193 9.130964 -8.985275 -2.950046 0.000336 -0.001829 88.891374 8.895728 -8.719161 -2.946630 0.000014 -0.000153 0.000000 -0.000001 -0.000001 -9.103691 -0.042762 -1.864901 87.112014 14.964463 -14.194656 -3.379318 0.000319 -0.000814 90.278906 10.576049 -10.644981 -2.889759 0.000349 0.000638 92.606772 7.716702 -8.122998 -2.638810 -0.000002 0.000937 0.000001 0.000000 0.000000 -8.076748 -0.486381 -3.806075 77.120889 15.267807 -12.077749 -3.600046 0.000268 -0.003564 78.856399 9.653957 -7.645873 -2.100019 0.000303 -0.005537 82.201163 6.684635 -5.638526 -2.115763 -0.000053 -0.003677 -0.000002 -0.000001 -0.000005 4.570446 11.014691 -2.160851 -0.000018 0.000010 -0.000021 10.592466 -0.524467 -2.232404 72.155198 -35.388016 26.171763 27.841822 0.000038 -0.000195 107.854691 -79.019941 97.085019 28.328844 -0.000031 0.000023 0.000018 -0.000090 0.000001 2.466173 -1.576114 2.681876 -5.177512 155.346642 -70.411867 3.217617 -1.871669 1.916407 145.129130 -35.910293 -57.414925 2.656082 -1.528590 1.514444 153.497737 -24.751730 41.876303 2.020887 -1.154070 1.115152 0.000003 0.000006 0.000004 9.109393 -0.517832 2.259745 98.734742 -18.443118 21.412769 3.700038 0.000190 -0.000463 93.375871 -12.364346 13.126624 2.850053 0.000211 0.000205 92.580093 -9.970387 10.425981 2.774880 -0.000046 -0.000028 0.000002 -0.000001 -0.000000 9.533466 0.000234 -0.000078 92.021431 -18.484300 19.126789 3.700028 0.000198 -0.000372 92.583228 -10.664017 11.150210 2.950074 0.000197 -0.000205 94.316074 -12.683886 13.671356 2.952882 -0.000031 0.000059 0.000003 0.000001 -0.000000 9.104602 -0.042839 -1.865221 87.199010 -18.798907 17.918463 3.150018 0.000246 -0.000102 95.802303 -11.152514 12.336484 2.950039 0.000201 -0.000068 99.500994 -12.063914 14.232084 2.644309 0.000031 0.000056 -0.000003 0.000001 0.000000 8.077838 -0.486746 -3.806390 64.463476 -19.179509 12.556125 3.599987 0.000126 0.014577 66.531698 -16.138269 10.981226 2.100032 0.000154 0.007556 72.060668 -13.659379 10.319896 2.125517 -0.000015 0.007515 0.000002 0.000001 0.000001 -8.207786 -6.751667 -1.599560 -0.077001 -0.000003 0.000080 -0.000002 -44.370110 0.345938 0.153719 -0.000000 -0.000000 0.000000 -44.423679 -3.043532 -0.076700 0.000000 -0.000002 -0.000006 -8.728667 10.710559 -0.000009 -0.000000 -0.000000 -0.000001 -0.000679 9.278123 0.000000 -0.000000 -0.000000 8.207792 -6.751710 -1.599556 -0.074518 -0.000003 0.000081 -0.000002 -44.370014 0.346960 0.148822 0.000002 0.000000 -0.000001 -44.423664 -3.044403 -0.074314 0.000000 -0.000002 -0.000004 -8.728671 10.710558 0.000007 -0.000000 -0.000000 0.000000 -0.000680 9.278137 -0.000000 0.000000 -0.000001 
0.000006 104.270477 1.554256 0.000010 0.000003 -0.000113 -0.000005 10.181587 0.131522 0.000001 -0.000003 0.000084 -0.000000 9.893967 -1.470711 0.000001 0.000000 -0.000000 -0.000000 9.220802 -1.370642 0.000000 -0.000000 -0.000000 0.000001 16.740433 -2.049030 0.000000 -0.000000 -0.000000 0.000000 9.617859 1.685014 0.000000 0.000000 0.000000 0.000002 22.037384 7.501101 0.000000 -0.000000 0.000000 -4.569968 11.014880 -2.160881 0.000008 0.000001 -0.000038 -10.592803 -0.524832 -2.231765 70.020654 61.242919 -45.039241 -27.841513 -0.000003 0.000560 13.772975 96.243403 -15.343976 -28.328831 0.000021 0.000032 -0.000320 -0.000046 0.000008 -2.464618 -1.574155 2.682356 23.895265 -153.935470 103.129928 -3.214745 -1.872671 1.924785 143.882156 -21.055491 -168.233788 -2.654905 -1.527705 1.512987 145.937374 34.625740 49.743721 -2.018834 -1.151984 1.108058 -0.000004 -0.000003 0.000002 -9.108397 -0.517663 2.260288 128.381725 23.438390 -46.530011 -3.700075 0.000278 0.001629 120.565803 12.441004 -21.580946 -2.850047 0.000366 -0.000149 117.535439 8.463240 -13.911885 -2.772169 -0.000015 -0.000030 0.000003 -0.000002 -0.000004 -9.532583 0.000251 0.000314 111.506315 15.507958 -22.827901 -3.700047 0.000329 0.004062 115.887423 5.387378 -8.453493 -2.950032 0.000340 -0.001705 116.138720 8.179466 -13.079311 -2.946613 0.000004 -0.000153 -0.000004 -0.000001 0.000001 -9.103702 -0.042779 -1.864781 110.185493 17.917586 -25.397384 -3.379321 0.000310 -0.000680 119.845791 7.301249 -12.602636 -2.889750 0.000318 0.000771 127.866838 5.882491 -12.085265 -2.638807 -0.000003 0.000948 0.000002 -0.000000 -0.000001 -8.076745 -0.486375 -3.805969 99.974497 17.199103 -20.245552 -3.600049 0.000268 -0.003407 112.409150 9.554050 -13.694584 -2.100048 0.000264 -0.005314 124.648903 9.064193 -16.745781 -2.115775 -0.000012 -0.003680 -0.000002 -0.000001 -0.000000 4.570446 11.014691 -2.160851 -0.000018 0.000010 -0.000021 10.592464 -0.524476 -2.232406 72.109627 -36.354983 26.887453 27.841824 0.000023 -0.000188 109.371136 -79.051428 98.701732 28.328857 -0.000027 0.000020 0.000022 -0.000087 -0.000004 2.466206 -1.576139 2.681875 -2.612564 156.052050 -74.721218 3.217628 -1.871667 1.916421 145.674220 -35.998925 -55.671485 2.656094 -1.528579 1.514452 153.298883 -24.896714 41.261241 2.020884 -1.154081 1.115137 0.000004 0.000011 0.000002 9.109395 -0.517835 2.259746 99.005662 -18.590757 21.684314 3.700052 0.000182 -0.000477 92.980595 -12.342613 13.014153 2.850038 0.000206 0.000204 91.891603 -10.085474 10.420919 2.774880 -0.000016 -0.000023 0.000001 0.000000 -0.000000 9.533472 0.000232 -0.000072 92.387898 -18.772283 19.546840 3.700064 0.000193 -0.000390 91.929251 -10.696377 11.057792 2.950051 0.000182 -0.000205 93.427173 -12.746550 13.528784 2.952853 -0.000014 0.000059 0.000001 -0.000003 -0.000001 9.104597 -0.042853 -1.865213 87.617332 -19.267083 18.497826 3.150054 0.000230 -0.000097 96.191337 -11.305026 12.589900 2.950031 0.000206 -0.000057 99.681912 -12.227544 14.470306 2.644318 0.000045 0.000054 -0.000002 -0.000002 -0.000000 8.077835 -0.486764 -3.806374 64.686939 -19.513055 12.826148 3.600019 0.000138 0.014575 66.861835 -16.413515 11.234647 2.100041 0.000152 0.007560 72.516385 -13.921081 10.600155 2.125497 -0.000015 0.007512 0.000001 -0.000001 -0.000000 -8.207786 -6.751667 -1.599560 -0.077001 -0.000003 0.000080 -0.000002 -44.370110 0.345938 0.153719 -0.000000 -0.000000 0.000000 -44.423679 -3.043532 -0.076700 0.000000 -0.000002 -0.000006 -8.728667 10.710559 -0.000009 -0.000000 -0.000000 -0.000001 -0.000679 9.278123 0.000000 -0.000000 -0.000000 8.207792 -6.751710 -1.599556 -0.074518 -0.000003 0.000081 -0.000002 -44.370014 0.346960 0.148822 0.000002 0.000000 -0.000001 -44.423664 -3.044403 -0.074314 0.000000 -0.000002 -0.000004 -8.728671 10.710558 0.000007 -0.000000 -0.000000 0.000000 -0.000680 9.278137 -0.000000 0.000000 -0.000001 
